<svg width="44" height="44" viewBox="0 0 44 44" fill="none" xmlns="http://www.w3.org/2000/svg">
<path d="M7.33337 40.3333C7.33337 36.4435 8.87861 32.713 11.6291 29.9624C14.3797 27.2119 18.1102 25.6667 22 25.6667C25.8899 25.6667 29.6204 27.2119 32.3709 29.9624C35.1215 32.713 36.6667 36.4435 36.6667 40.3333H7.33337ZM22 23.8333C19.8244 23.8333 17.6977 23.1882 15.8888 21.9795C14.0798 20.7708 12.6699 19.0528 11.8374 17.0428C11.0048 15.0328 10.787 12.8211 11.2114 10.6873C11.6358 8.55353 12.6835 6.59352 14.2219 5.05514C15.7602 3.51677 17.7203 2.46912 19.854 2.04468C21.9878 1.62024 24.1996 1.83808 26.2096 2.67064C28.2195 3.50321 29.9375 4.9131 31.1462 6.72205C32.3549 8.53099 33 10.6577 33 12.8333C33 15.7507 31.8411 18.5486 29.7782 20.6115C27.7153 22.6744 24.9174 23.8333 22 23.8333Z" fill="#686868"/>
</svg>
