<svg width="44" height="44" viewBox="0 0 44 44" fill="none" xmlns="http://www.w3.org/2000/svg">
<path d="M2.16626 22C3.89053 12.6129 12.1148 5.5 22.0005 5.5C31.886 5.5 40.1103 12.6129 41.8346 22C40.1103 31.387 31.886 38.5 22.0005 38.5C12.1148 38.5 3.89053 31.387 2.16626 22ZM22.0005 31.1667C27.063 31.1667 31.1671 27.0626 31.1671 22C31.1671 16.9374 27.063 12.8333 22.0005 12.8333C16.9378 12.8333 12.8337 16.9374 12.8337 22C12.8337 27.0626 16.9378 31.1667 22.0005 31.1667ZM22.0005 27.5C18.9628 27.5 16.5004 25.0377 16.5004 22C16.5004 18.9623 18.9628 16.5 22.0005 16.5C25.0379 16.5 27.5005 18.9623 27.5005 22C27.5005 25.0377 25.0379 27.5 22.0005 27.5Z" fill="#353535"/>
</svg>
