<svg width="44" height="44" viewBox="0 0 44 44" fill="none" xmlns="http://www.w3.org/2000/svg">
<g clip-path="url(#clip0_111_17)">
<path d="M5.50008 5.5H38.5001C38.9863 5.5 39.4526 5.69315 39.7964 6.03697C40.1403 6.38079 40.3334 6.8471 40.3334 7.33333V36.6667C40.3334 37.1529 40.1403 37.6192 39.7964 37.963C39.4526 38.3068 38.9863 38.5 38.5001 38.5H5.50008C5.01385 38.5 4.54754 38.3068 4.20372 37.963C3.8599 37.6192 3.66675 37.1529 3.66675 36.6667V7.33333C3.66675 6.8471 3.8599 6.38079 4.20372 6.03697C4.54754 5.69315 5.01385 5.5 5.50008 5.5ZM22.1101 21.4188L10.3547 11.4363L7.98058 14.2303L22.1339 26.2478L36.0324 14.2212L33.6344 11.4473L22.1119 21.4188H22.1101Z" fill="#686868"/>
</g>
<defs>
<clipPath id="clip0_111_17">
<rect width="44" height="44" fill="white"/>
</clipPath>
</defs>
</svg>
