<svg width="44" height="44" viewBox="0 0 44 44" fill="none" xmlns="http://www.w3.org/2000/svg">
<path d="M34.8333 18.3334H36.6667C37.1529 18.3334 37.6192 18.5265 37.963 18.8703C38.3068 19.2141 38.5 19.6805 38.5 20.1667V38.5C38.5 38.9863 38.3068 39.4526 37.963 39.7964C37.6192 40.1402 37.1529 40.3334 36.6667 40.3334H7.33333C6.8471 40.3334 6.38079 40.1402 6.03697 39.7964C5.69315 39.4526 5.5 38.9863 5.5 38.5V20.1667C5.5 19.6805 5.69315 19.2141 6.03697 18.8703C6.38079 18.5265 6.8471 18.3334 7.33333 18.3334H9.16667V16.5C9.16667 13.0964 10.5187 9.8322 12.9255 7.42548C15.3322 5.01877 18.5964 3.66669 22 3.66669C25.4036 3.66669 28.6678 5.01877 31.0745 7.42548C33.4813 9.8322 34.8333 13.0964 34.8333 16.5V18.3334ZM31.1667 18.3334V16.5C31.1667 14.0689 30.2009 11.7373 28.4818 10.0182C26.7627 8.29912 24.4312 7.33335 22 7.33335C19.5688 7.33335 17.2373 8.29912 15.5182 10.0182C13.7991 11.7373 12.8333 14.0689 12.8333 16.5V18.3334H31.1667ZM20.1667 25.6667V33H23.8333V25.6667H20.1667Z" fill="#686868"/>
</svg>
