<svg width="44" height="44" viewBox="0 0 44 44" fill="none" xmlns="http://www.w3.org/2000/svg">
<path d="M44 9.15527V12.9799H0V9.15527C0 6.12603 2.67617 3.67218 5.97987 3.67218H11.9782V6.70142C11.9782 7.47988 12.8087 8.10604 13.8238 8.10604C14.8389 8.10604 15.6695 7.47988 15.6695 6.70142V3.67218H27.9799V6.70142C27.9799 7.47988 28.8104 8.10604 29.8255 8.10604C30.8406 8.10604 31.6711 7.47988 31.6711 6.70142V3.67218H38.0201C41.3238 3.67218 44 6.12603 44 9.15527Z" fill="#030303"/>
<path d="M0 16.3645H44V38.5169C44 41.5461 41.3238 44 38.0201 44H5.97987C2.67617 44 0 41.5461 0 38.5169V16.3645Z" fill="#030303"/>
<path d="M15.6693 1.40462V3.67232H11.978V1.40462C11.978 0.626156 12.8086 0 13.8237 0C14.8388 0 15.6693 0.626156 15.6693 1.40462Z" fill="#030303"/>
<path d="M31.6708 1.40462V3.67232H27.9795V1.40462C27.9795 0.626156 28.81 0 29.8251 0C30.8402 0 31.6708 0.626156 31.6708 1.40462Z" fill="#030303"/>
</svg>
