<svg width="44" height="44" viewBox="0 0 44 44" fill="none" xmlns="http://www.w3.org/2000/svg">
<path d="M11.3702 35.4576C10.4259 36.1069 9.27756 36.4879 8.04878 36.4879C6.81463 36.4879 5.66634 36.1069 4.72195 35.4576C2.06585 35.7742 0 38.0386 0 40.7805V42.9269C0 43.5171 0.477561 44 1.07317 44H15.0244C15.6146 44 16.0976 43.5171 16.0976 42.9269V40.7805C16.0976 38.0386 14.0263 35.7742 11.3702 35.4576Z" fill="#030303"/>
<path d="M8.04907 34.3414C10.1235 34.3414 11.8052 32.6598 11.8052 30.5854C11.8052 28.5109 10.1235 26.8293 8.04907 26.8293C5.97463 26.8293 4.29297 28.5109 4.29297 30.5854C4.29297 32.6598 5.97463 34.3414 8.04907 34.3414Z" fill="#030303"/>
<path d="M39.2726 35.4576C38.3282 36.1069 37.1799 36.4879 35.9511 36.4879C34.717 36.4879 33.5687 36.1069 32.6243 35.4576C29.9682 35.7742 27.9023 38.0386 27.9023 40.7805V42.9269C27.9023 43.5171 28.3799 44 28.9755 44H42.9267C43.517 44 43.9999 43.5171 43.9999 42.9269V40.7805C43.9999 38.0386 41.9287 35.7742 39.2726 35.4576Z" fill="#030303"/>
<path d="M35.9514 34.3414C38.0258 34.3414 39.7075 32.6598 39.7075 30.5854C39.7075 28.5109 38.0258 26.8293 35.9514 26.8293C33.877 26.8293 32.1953 28.5109 32.1953 30.5854C32.1953 32.6598 33.877 34.3414 35.9514 34.3414Z" fill="#030303"/>
<path d="M15.0243 17.1708H28.9756C29.5658 17.1708 30.0487 16.6878 30.0487 16.0976V13.9513C30.0487 11.2093 27.9775 8.94491 25.3214 8.62833C24.377 9.27759 23.2287 9.65857 22 9.65857C20.7658 9.65857 19.6175 9.27759 18.6731 8.62833C16.017 8.94491 13.9512 11.2093 13.9512 13.9513V16.0976C13.9512 16.6878 14.4287 17.1708 15.0243 17.1708Z" fill="#030303"/>
<path d="M22.0002 7.5122C24.0747 7.5122 25.7563 5.83053 25.7563 3.7561C25.7563 1.68166 24.0747 0 22.0002 0C19.9258 0 18.2441 1.68166 18.2441 3.7561C18.2441 5.83053 19.9258 7.5122 22.0002 7.5122Z" fill="#030303"/>
<path d="M23.0731 27.4571V22.5366C23.0731 21.9463 22.5901 21.4634 21.9999 21.4634C21.4096 21.4634 20.9267 21.9463 20.9267 22.5366V27.4571L16.9506 31.4332C16.5321 31.8517 16.5321 32.5332 16.9506 32.9517C17.1545 33.161 17.4282 33.2683 17.7072 33.2683C17.9862 33.2683 18.2545 33.161 18.4638 32.9517L21.9999 29.421L25.536 32.9571C25.7399 33.161 26.0135 33.2683 26.2926 33.2683C26.5716 33.2683 26.8399 33.161 27.0492 32.9517C27.4677 32.5332 27.4677 31.8517 27.0492 31.4332L23.0731 27.4571Z" fill="#030303"/>
</svg>
