<svg width="44" height="44" viewBox="0 0 44 44" fill="none" xmlns="http://www.w3.org/2000/svg">
<path d="M43.4722 17.6252L26.2527 1.65532C23.8668 -0.551774 20.1152 -0.551774 17.7293 1.65532L0.525451 17.6252C-0.997149 19.0441 1.12193 21.3615 2.66023 19.9427L3.16253 19.4697V37.694C3.16253 41.1781 5.97228 44 9.4413 44H15.7201V34.541C15.7201 31.9398 17.8391 29.8115 20.4291 29.8115H23.5685C26.1585 29.8115 28.2776 31.9398 28.2776 34.541V44H34.5564C38.0254 44 40.8351 41.1781 40.8351 37.694V19.4697L41.3374 19.9427C42.8443 21.33 45.0105 19.0598 43.4722 17.6252Z" fill="#030303"/>
</svg>
