<svg width="44" height="44" viewBox="0 0 44 44" fill="none" xmlns="http://www.w3.org/2000/svg">
<path d="M7.3335 40.3333C7.3335 36.4434 8.87873 32.7129 11.6293 29.9624C14.3798 27.2118 18.1103 25.6666 22.0002 25.6666C25.89 25.6666 29.6205 27.2118 32.3711 29.9624C35.1216 32.7129 36.6668 36.4434 36.6668 40.3333H7.3335ZM22.0002 23.8333C19.8246 23.8333 17.6978 23.1881 15.8889 21.9794C14.0799 20.7707 12.6701 19.0528 11.8375 17.0428C11.0049 15.0328 10.7871 12.8211 11.2115 10.6873C11.636 8.55347 12.6836 6.59346 14.222 5.05508C15.7604 3.51671 17.7204 2.46906 19.8542 2.04462C21.988 1.62018 24.1997 1.83802 26.2097 2.67058C28.2197 3.50315 29.9376 4.91304 31.1463 6.72198C32.355 8.53093 33.0002 10.6577 33.0002 12.8333C33.0002 15.7506 31.8412 18.5485 29.7783 20.6114C27.7154 22.6743 24.9175 23.8333 22.0002 23.8333Z" fill="#030303"/>
</svg>
